<svg id="Шар_1" data-name="Шар 1" xmlns="http://www.w3.org/2000/svg" viewBox="0 0 512 512"><defs><style>.cls-1{fill:#303030;}.cls-2{fill:#fff;}</style></defs><rect class="cls-1" width="512" height="512" rx="40"/><path class="cls-2" d="M310,96.5q13.74,19.26,28.12,49.62T366,212.75q13.5,36.25,24.37,74.13t17.88,72.87q7,35,8,62.25.24,13.26-12,13.25h-60.5q-11.76,0-12.25-11.75-1-28-9-68H186q-7,39-8,68-.51,11.76-12.75,11.75H106a10.93,10.93,0,0,1-7.5-2.63q-3-2.61-2.75-9.12,1.24-27.75,8.12-63.12T121.76,287q11-38,24.5-74.38t28-66.62q14.49-30.24,28.25-49.5,7.25-10.25,15.37-15T238,76.75h36q12.24,0,20.5,4.75T310,96.5Zm-56.5,59.25Q237,182,223.26,218.5a739.57,739.57,0,0,0-23.75,75H308q-10.5-38.49-24.25-75T255,155.75Z"/></svg>